<?xml version="1.0" encoding="utf-8"?>
<svg id="svg3098" viewBox="0 0 179.13 192.7" version="1.1" xmlns="http://www.w3.org/2000/svg">
  <title id="title3140">Talking</title>
  <g id="layer1" transform="matrix(-0.863375, 0, 0, 0.853272, 206.18605, -490.144012)" style="">
    <g id="g3614" transform="matrix(.52821 0 0 .52821 96.262 536.09)">
      <path id="path2816" style="fill:#c8b7b7" d="m64.281 109.52c-67.92 0-126.68 39.171-154.94 96.156l126.16 85.781-117.94 82.312c30.533 48.903 84.82 81.438 146.72 81.438 95.466 0 172.88-77.377 172.88-172.84 0-95.466-77.409-172.84-172.88-172.84z"/>
      <path id="path3598" style="stroke:#000000;stroke-width:19.1;fill:#c8b7b7" d="m-422.86 236.65a8.5714 10 0 1 1 -17.143 0 8.5714 10 0 1 1 17.143 0z" transform="translate(477.14 -28.571)"/>
      <path id="path3600" style="block-progression:tb;text-indent:0;color:#000000;text-transform:none;fill:#000000" d="m64.281 102.81c-63.816-4.065-174.88 57.36-153.84 119.92 39.845 21.41 143.89 75.15 55.67 108.57-67.601 15.6-57.673 85.34-0.914 107.54 87.412 58.42 220.03 24.06 263.37-73.09 48.29-93.98-2.69-221.43-104.33-253.11-19.23-6.66-39.6-10.09-59.959-9.83zm0 19.125c119.06-6.5924 208.49 144.75 142.08 245.2-45.325 81.099-160.76 106.02-237.13 54.339-76.461-56.52 52.351-87.122 71.238-129.59-16.481-45.92-134.95-51.42-102.42-112.75 33.182-33.82 77.751-58.46 126.23-57.2z"/>
    </g>
  </g>
</svg>